<mxfile host="app.diagrams.net" agent="Mozilla/5.0 (Windows NT 10.0; Win64; x64) AppleWebKit/537.36 (KHTML, like Gecko) Chrome/132.0.0.0 Safari/537.36" version="26.0.8">
  <diagram name="PÃ¡gina-1" id="ugNYonyBPk6qFIPh8cB3">
    <mxGraphModel dx="989" dy="509" grid="1" gridSize="10" guides="1" tooltips="1" connect="1" arrows="1" fold="1" page="1" pageScale="1" pageWidth="827" pageHeight="1169" math="0" shadow="0">
      <root>
        <mxCell id="0" />
        <mxCell id="1" parent="0" />
        <mxCell id="2AdBNrpjbDducpIuZtAQ-1" value="&lt;div&gt;&lt;b&gt;&amp;lt;&amp;lt;abstract&amp;gt;&amp;gt;&lt;/b&gt;&lt;/div&gt;&lt;b&gt;LoggerRepository&amp;lt;K,E&amp;gt;&lt;/b&gt;" style="swimlane;fontStyle=0;align=center;verticalAlign=top;childLayout=stackLayout;horizontal=1;startSize=40;horizontalStack=0;resizeParent=1;resizeParentMax=0;resizeLast=0;collapsible=0;marginBottom=0;html=1;whiteSpace=wrap;fillColor=#d5e8d4;strokeColor=#82b366;" parent="1" vertex="1">
          <mxGeometry x="330" y="270" width="300" height="408" as="geometry" />
        </mxCell>
        <mxCell id="2AdBNrpjbDducpIuZtAQ-8" value="# sourceRepository: IRepository&amp;lt;K,E&amp;gt;" style="text;html=1;align=left;verticalAlign=middle;spacingLeft=4;spacingRight=4;overflow=hidden;rotatable=0;points=[[0,0.5],[1,0.5]];portConstraint=eastwest;whiteSpace=wrap;fillColor=default;" parent="2AdBNrpjbDducpIuZtAQ-1" vertex="1">
          <mxGeometry y="40" width="300" height="20" as="geometry" />
        </mxCell>
        <mxCell id="7DSVnzMwaJu-oXMH9UBE-20" value="" style="line;strokeWidth=1;fillColor=none;align=left;verticalAlign=middle;spacingTop=-1;spacingLeft=3;spacingRight=3;rotatable=0;labelPosition=right;points=[];portConstraint=eastwest;strokeColor=inherit;" vertex="1" parent="2AdBNrpjbDducpIuZtAQ-1">
          <mxGeometry y="60" width="300" height="8" as="geometry" />
        </mxCell>
        <mxCell id="7DSVnzMwaJu-oXMH9UBE-12" value="# logEnteringOnGetAll(): void" style="text;html=1;align=left;verticalAlign=middle;spacingLeft=4;spacingRight=4;overflow=hidden;rotatable=0;points=[[0,0.5],[1,0.5]];portConstraint=eastwest;whiteSpace=wrap;fillColor=default;" vertex="1" parent="2AdBNrpjbDducpIuZtAQ-1">
          <mxGeometry y="68" width="300" height="20" as="geometry" />
        </mxCell>
        <mxCell id="7DSVnzMwaJu-oXMH9UBE-29" value="# logLeavingFromGetAll(): void" style="text;html=1;align=left;verticalAlign=middle;spacingLeft=4;spacingRight=4;overflow=hidden;rotatable=0;points=[[0,0.5],[1,0.5]];portConstraint=eastwest;whiteSpace=wrap;fillColor=default;" vertex="1" parent="2AdBNrpjbDducpIuZtAQ-1">
          <mxGeometry y="88" width="300" height="20" as="geometry" />
        </mxCell>
        <mxCell id="7DSVnzMwaJu-oXMH9UBE-30" value="# logReturnOfGetAll(Collection&amp;lt;E&amp;gt; entities): void" style="text;html=1;align=left;verticalAlign=middle;spacingLeft=4;spacingRight=4;overflow=hidden;rotatable=0;points=[[0,0.5],[1,0.5]];portConstraint=eastwest;whiteSpace=wrap;fillColor=default;" vertex="1" parent="2AdBNrpjbDducpIuZtAQ-1">
          <mxGeometry y="108" width="300" height="20" as="geometry" />
        </mxCell>
        <mxCell id="7DSVnzMwaJu-oXMH9UBE-32" value="# logExceptionOnGetAll(Exception e): void" style="text;html=1;align=left;verticalAlign=middle;spacingLeft=4;spacingRight=4;overflow=hidden;rotatable=0;points=[[0,0.5],[1,0.5]];portConstraint=eastwest;whiteSpace=wrap;fillColor=default;" vertex="1" parent="2AdBNrpjbDducpIuZtAQ-1">
          <mxGeometry y="128" width="300" height="20" as="geometry" />
        </mxCell>
        <mxCell id="7DSVnzMwaJu-oXMH9UBE-33" value="# logEnteringOnGet(K key): void" style="text;html=1;align=left;verticalAlign=middle;spacingLeft=4;spacingRight=4;overflow=hidden;rotatable=0;points=[[0,0.5],[1,0.5]];portConstraint=eastwest;whiteSpace=wrap;fillColor=default;" vertex="1" parent="2AdBNrpjbDducpIuZtAQ-1">
          <mxGeometry y="148" width="300" height="20" as="geometry" />
        </mxCell>
        <mxCell id="7DSVnzMwaJu-oXMH9UBE-34" value="# logLeavingFromGet(K key): void" style="text;html=1;align=left;verticalAlign=middle;spacingLeft=4;spacingRight=4;overflow=hidden;rotatable=0;points=[[0,0.5],[1,0.5]];portConstraint=eastwest;whiteSpace=wrap;fillColor=default;" vertex="1" parent="2AdBNrpjbDducpIuZtAQ-1">
          <mxGeometry y="168" width="300" height="20" as="geometry" />
        </mxCell>
        <mxCell id="7DSVnzMwaJu-oXMH9UBE-35" value="# logReturnOfGet(K key, E entity): void" style="text;html=1;align=left;verticalAlign=middle;spacingLeft=4;spacingRight=4;overflow=hidden;rotatable=0;points=[[0,0.5],[1,0.5]];portConstraint=eastwest;whiteSpace=wrap;fillColor=default;" vertex="1" parent="2AdBNrpjbDducpIuZtAQ-1">
          <mxGeometry y="188" width="300" height="20" as="geometry" />
        </mxCell>
        <mxCell id="7DSVnzMwaJu-oXMH9UBE-36" value="# logExceptionOnGet(K key, Exception e): void" style="text;html=1;align=left;verticalAlign=middle;spacingLeft=4;spacingRight=4;overflow=hidden;rotatable=0;points=[[0,0.5],[1,0.5]];portConstraint=eastwest;whiteSpace=wrap;fillColor=default;" vertex="1" parent="2AdBNrpjbDducpIuZtAQ-1">
          <mxGeometry y="208" width="300" height="20" as="geometry" />
        </mxCell>
        <mxCell id="7DSVnzMwaJu-oXMH9UBE-38" value="# logEnteringOnInsert(E entity): void" style="text;html=1;align=left;verticalAlign=middle;spacingLeft=4;spacingRight=4;overflow=hidden;rotatable=0;points=[[0,0.5],[1,0.5]];portConstraint=eastwest;whiteSpace=wrap;fillColor=default;" vertex="1" parent="2AdBNrpjbDducpIuZtAQ-1">
          <mxGeometry y="228" width="300" height="20" as="geometry" />
        </mxCell>
        <mxCell id="7DSVnzMwaJu-oXMH9UBE-39" value="# logLeavingFromInsert(E entity): void" style="text;html=1;align=left;verticalAlign=middle;spacingLeft=4;spacingRight=4;overflow=hidden;rotatable=0;points=[[0,0.5],[1,0.5]];portConstraint=eastwest;whiteSpace=wrap;fillColor=default;" vertex="1" parent="2AdBNrpjbDducpIuZtAQ-1">
          <mxGeometry y="248" width="300" height="20" as="geometry" />
        </mxCell>
        <mxCell id="7DSVnzMwaJu-oXMH9UBE-40" value="# logExceptionOnInser(E entity, Exception e): void" style="text;html=1;align=left;verticalAlign=middle;spacingLeft=4;spacingRight=4;overflow=hidden;rotatable=0;points=[[0,0.5],[1,0.5]];portConstraint=eastwest;whiteSpace=wrap;fillColor=default;" vertex="1" parent="2AdBNrpjbDducpIuZtAQ-1">
          <mxGeometry y="268" width="300" height="20" as="geometry" />
        </mxCell>
        <mxCell id="7DSVnzMwaJu-oXMH9UBE-41" value="# logEnteringOnUpdate(E entity): void" style="text;html=1;align=left;verticalAlign=middle;spacingLeft=4;spacingRight=4;overflow=hidden;rotatable=0;points=[[0,0.5],[1,0.5]];portConstraint=eastwest;whiteSpace=wrap;fillColor=default;" vertex="1" parent="2AdBNrpjbDducpIuZtAQ-1">
          <mxGeometry y="288" width="300" height="20" as="geometry" />
        </mxCell>
        <mxCell id="7DSVnzMwaJu-oXMH9UBE-42" value="# logLeavingFromUpdate(E entity): void" style="text;html=1;align=left;verticalAlign=middle;spacingLeft=4;spacingRight=4;overflow=hidden;rotatable=0;points=[[0,0.5],[1,0.5]];portConstraint=eastwest;whiteSpace=wrap;fillColor=default;" vertex="1" parent="2AdBNrpjbDducpIuZtAQ-1">
          <mxGeometry y="308" width="300" height="20" as="geometry" />
        </mxCell>
        <mxCell id="7DSVnzMwaJu-oXMH9UBE-43" value="# logExceptionOnUpdate(E entity, Exception e): void" style="text;html=1;align=left;verticalAlign=middle;spacingLeft=4;spacingRight=4;overflow=hidden;rotatable=0;points=[[0,0.5],[1,0.5]];portConstraint=eastwest;whiteSpace=wrap;fillColor=default;" vertex="1" parent="2AdBNrpjbDducpIuZtAQ-1">
          <mxGeometry y="328" width="300" height="20" as="geometry" />
        </mxCell>
        <mxCell id="7DSVnzMwaJu-oXMH9UBE-44" value="# logEnteringOnDelete(K key): void" style="text;html=1;align=left;verticalAlign=middle;spacingLeft=4;spacingRight=4;overflow=hidden;rotatable=0;points=[[0,0.5],[1,0.5]];portConstraint=eastwest;whiteSpace=wrap;fillColor=default;" vertex="1" parent="2AdBNrpjbDducpIuZtAQ-1">
          <mxGeometry y="348" width="300" height="20" as="geometry" />
        </mxCell>
        <mxCell id="7DSVnzMwaJu-oXMH9UBE-45" value="# logLeavingFromDelete(K key): void" style="text;html=1;align=left;verticalAlign=middle;spacingLeft=4;spacingRight=4;overflow=hidden;rotatable=0;points=[[0,0.5],[1,0.5]];portConstraint=eastwest;whiteSpace=wrap;fillColor=default;" vertex="1" parent="2AdBNrpjbDducpIuZtAQ-1">
          <mxGeometry y="368" width="300" height="20" as="geometry" />
        </mxCell>
        <mxCell id="7DSVnzMwaJu-oXMH9UBE-46" value="# logExceptionOnDelete(K key, Exception e): void" style="text;html=1;align=left;verticalAlign=middle;spacingLeft=4;spacingRight=4;overflow=hidden;rotatable=0;points=[[0,0.5],[1,0.5]];portConstraint=eastwest;whiteSpace=wrap;fillColor=default;" vertex="1" parent="2AdBNrpjbDducpIuZtAQ-1">
          <mxGeometry y="388" width="300" height="20" as="geometry" />
        </mxCell>
        <mxCell id="7DSVnzMwaJu-oXMH9UBE-7" style="edgeStyle=orthogonalEdgeStyle;rounded=0;orthogonalLoop=1;jettySize=auto;html=1;endArrow=diamond;endFill=0;strokeColor=default;" edge="1" parent="1" source="7DSVnzMwaJu-oXMH9UBE-1" target="2AdBNrpjbDducpIuZtAQ-8">
          <mxGeometry relative="1" as="geometry" />
        </mxCell>
        <mxCell id="7DSVnzMwaJu-oXMH9UBE-1" value="&lt;b&gt;IRepository&amp;lt;K,E&amp;gt;&lt;/b&gt;" style="swimlane;fontStyle=0;align=center;verticalAlign=top;childLayout=stackLayout;horizontal=1;startSize=30;horizontalStack=0;resizeParent=1;resizeParentMax=0;resizeLast=0;collapsible=0;marginBottom=0;html=1;whiteSpace=wrap;fillColor=#d5e8d4;strokeColor=#82b366;" vertex="1" parent="1">
          <mxGeometry x="120" y="305" width="160" height="30" as="geometry" />
        </mxCell>
      </root>
    </mxGraphModel>
  </diagram>
</mxfile>
